<svg xmlns="http://www.w3.org/2000/svg" viewBox="0 0 320 80" fill="none">
  <g transform="translate(4,8)">
    <path d="M8 48 L8 8 L28 8 L28 20 L20 20 L20 48 Z" fill="#000"/>
    <path d="M20 8 L36 8 L36 48 L28 48 L28 28 L20 28 Z" fill="#000"/>
    <line x1="12" y1="48" x2="12" y2="58" stroke="#000" stroke-width="2"/>
    <line x1="20" y1="48" x2="20" y2="60" stroke="#000" stroke-width="2"/>
    <line x1="28" y1="48" x2="28" y2="58" stroke="#000" stroke-width="2"/>
    <line x1="36" y1="48" x2="36" y2="60" stroke="#2563eb" stroke-width="2"/>
    <rect x="10" y="58" width="4" height="4" fill="#000"/>
    <rect x="18" y="60" width="4" height="4" fill="#000"/>
    <rect x="26" y="58" width="4" height="4" fill="#000"/>
    <rect x="34" y="60" width="4" height="4" fill="#2563eb"/>
  </g>
  <line x1="72" y1="12" x2="72" y2="68" stroke="#cbd5e1" stroke-width="1"/>
  <text x="88" y="42" font-family="Arial, Helvetica, sans-serif" font-size="28" font-weight="700" fill="#000" letter-spacing="2">OCTOBAT</text>
  <text x="88" y="62" font-family="Arial, Helvetica, sans-serif" font-size="11" font-weight="400" fill="#64748b" letter-spacing="4">DANOBAT</text>
  <rect x="168" y="54" width="6" height="6" fill="#2563eb"/>
</svg>
